<svg xmlns="http://www.w3.org/2000/svg" viewBox="0 0 1672 941" width="1672" height="941">
  <defs>
    <linearGradient id="gold" x1="0" y1="0" x2="1" y2="1">
      <stop offset="0" stop-color="#fff4ad"/>
      <stop offset="0.28" stop-color="#d99a25"/>
      <stop offset="0.58" stop-color="#5f3105"/>
      <stop offset="0.82" stop-color="#ffd35c"/>
      <stop offset="1" stop-color="#7a4208"/>
    </linearGradient>
    <radialGradient id="green" cx="50%" cy="45%" r="75%">
      <stop offset="0" stop-color="#0d4f2f"/>
      <stop offset="0.72" stop-color="#062615"/>
      <stop offset="1" stop-color="#020805"/>
    </radialGradient>
    <filter id="shadow" x="-20%" y="-20%" width="140%" height="140%">
      <feDropShadow dx="0" dy="8" stdDeviation="8" flood-color="#000" flood-opacity="0.85"/>
    </filter>
    <filter id="glow" x="-20%" y="-20%" width="140%" height="140%">
      <feDropShadow dx="0" dy="0" stdDeviation="2" flood-color="#ffd86b" flood-opacity="0.75"/>
    </filter>
  </defs>
  <rect width="1672" height="941" fill="transparent"/>
  <g filter="url(#shadow)">
    <rect x="62" y="350" width="170" height="245" rx="16" fill="url(#green)" stroke="url(#gold)" stroke-width="6"/>
    <rect x="78" y="365" width="138" height="168" rx="10" fill="#04150c" stroke="url(#gold)" stroke-width="3"/>
    <rect x="82" y="543" width="130" height="38" rx="6" fill="#04150c" stroke="url(#gold)" stroke-width="3"/>
    <text x="147" y="574" text-anchor="middle" font-family="Georgia, serif" font-size="34" font-weight="700" fill="#fff1ad">0</text>
    <g transform="translate(96 382) rotate(-34 52 60)" filter="url(#glow)">
      <circle cx="58" cy="38" r="22" fill="none" stroke="url(#gold)" stroke-width="8"/>
      <circle cx="58" cy="38" r="10" fill="#00a86b" stroke="#fff4ad" stroke-width="3"/>
      <path d="M58 60 L58 150" stroke="url(#gold)" stroke-width="12" stroke-linecap="round"/>
      <path d="M58 116 L86 116 M58 137 L76 137" stroke="url(#gold)" stroke-width="10" stroke-linecap="round"/>
      <path d="M39 22 C50 6 70 6 81 22 M34 40 C20 34 20 50 34 44 M82 40 C96 34 96 50 82 44" fill="none" stroke="url(#gold)" stroke-width="5" stroke-linecap="round"/>
    </g>
  </g>
  <g filter="url(#shadow)">
    <rect x="236" y="126" width="1200" height="690" rx="8" fill="url(#green)" stroke="url(#gold)" stroke-width="10"/>
    <rect x="252" y="142" width="1168" height="658" rx="5" fill="url(#green)" opacity="0.98"/>
    <g stroke="url(#gold)" stroke-width="4" stroke-linecap="round" filter="url(#glow)">
      <line x1="485.6" y1="142" x2="485.6" y2="800"/>
      <line x1="719.2" y1="142" x2="719.2" y2="800"/>
      <line x1="952.8" y1="142" x2="952.8" y2="800"/>
      <line x1="1186.4" y1="142" x2="1186.4" y2="800"/>
      <line x1="252" y1="273.6" x2="1420" y2="273.6"/>
      <line x1="252" y1="405.2" x2="1420" y2="405.2"/>
      <line x1="252" y1="536.8" x2="1420" y2="536.8"/>
      <line x1="252" y1="668.4" x2="1420" y2="668.4"/>
    </g>
    <g fill="#009a66" stroke="url(#gold)" stroke-width="4" filter="url(#glow)">
      <path d="M485.6 273.6 l12 12 l-12 12 l-12 -12z"/><path d="M719.2 273.6 l12 12 l-12 12 l-12 -12z"/><path d="M952.8 273.6 l12 12 l-12 12 l-12 -12z"/><path d="M1186.4 273.6 l12 12 l-12 12 l-12 -12z"/>
      <path d="M485.6 405.2 l12 12 l-12 12 l-12 -12z"/><path d="M719.2 405.2 l12 12 l-12 12 l-12 -12z"/><path d="M952.8 405.2 l12 12 l-12 12 l-12 -12z"/><path d="M1186.4 405.2 l12 12 l-12 12 l-12 -12z"/>
      <path d="M485.6 536.8 l12 12 l-12 12 l-12 -12z"/><path d="M719.2 536.8 l12 12 l-12 12 l-12 -12z"/><path d="M952.8 536.8 l12 12 l-12 12 l-12 -12z"/><path d="M1186.4 536.8 l12 12 l-12 12 l-12 -12z"/>
      <path d="M485.6 668.4 l12 12 l-12 12 l-12 -12z"/><path d="M719.2 668.4 l12 12 l-12 12 l-12 -12z"/><path d="M952.8 668.4 l12 12 l-12 12 l-12 -12z"/><path d="M1186.4 668.4 l12 12 l-12 12 l-12 -12z"/>
    </g>
    <g fill="url(#gold)" stroke="#fff0a6" stroke-width="1.2" filter="url(#glow)">
      <path d="M228 118 h68 l-22 22 h-24 v24 l-22 22z"/><path d="M1444 118 h-68 l22 22 h24 v24 l22 22z"/>
      <path d="M228 824 h68 l-22 -22 h-24 v-24 l-22 -22z"/><path d="M1444 824 h-68 l22 -22 h24 v-24 l22 -22z"/>
      <path d="M836 104 c18 18 40 18 58 0 c-10 25-40 33-58 52 c-18-19-48-27-58-52 c18 18 40 18 58 0z"/>
      <path d="M836 838 c18-18 40-18 58 0 c-10-25-40-33-58-52 c-18 19-48 27-58 52 c18-18 40-18 58 0z"/>
    </g>
  </g>
</svg>